<?xml version="1.0" ?><svg baseProfile="tiny" height="24px" id="Layer_1" version="1.2" viewBox="0 0 24 24" width="24px" xml:space="preserve" xmlns="http://www.w3.org/2000/svg" xmlns:xlink="http://www.w3.org/1999/xlink"><g><path d="M15.053,6.912C14.729,6.598,14.288,6.4,13.8,6.4c-0.994,0-1.8,0.807-1.8,1.801v4.5v4.5C12,18.195,12.806,19,13.8,19   c0.488,0,0.93-0.195,1.253-0.512C17.434,16.174,21,12.701,21,12.701S17.434,9.227,15.053,6.912z"/></g><g><path d="M6.053,6.912C5.729,6.598,5.288,6.4,4.8,6.4C3.806,6.4,3,7.207,3,8.201v9C3,18.195,3.806,19,4.8,19   c0.488,0,0.93-0.195,1.253-0.512C8.434,16.174,12,12.701,12,12.701S8.434,9.227,6.053,6.912z"/></g></svg>