<?xml version="1.0" ?><svg baseProfile="tiny" height="24px" id="Layer_1" version="1.2" viewBox="0 0 24 24" width="24px" xml:space="preserve" xmlns="http://www.w3.org/2000/svg" xmlns:xlink="http://www.w3.org/1999/xlink"><g><path d="M10.2,6.4c-0.488,0-0.931,0.197-1.253,0.512C6.566,9.227,3,12.701,3,12.701s3.566,3.473,5.944,5.789   C9.27,18.805,9.712,19,10.2,19c0.994,0,1.8-0.805,1.8-1.799v-4.5v-4.5C12,7.207,11.194,6.4,10.2,6.4z"/></g><g><path d="M19.2,6.4c-0.488,0-0.931,0.197-1.253,0.512C15.566,9.227,12,12.701,12,12.701s3.566,3.473,5.944,5.789   C18.27,18.805,18.712,19,19.2,19c0.994,0,1.8-0.805,1.8-1.799v-9C21,7.207,20.194,6.4,19.2,6.4z"/></g></svg>